<?xml version="1.0" standalone="no"?>
<!DOCTYPE svg PUBLIC "-//W3C//DTD SVG 20010904//EN"
 "http://www.w3.org/TR/2001/REC-SVG-20010904/DTD/svg10.dtd">
<svg version="1.0" xmlns="http://www.w3.org/2000/svg"
 width="1600.000000pt" height="1600.000000pt" viewBox="0 0 1600.000000 1600.000000"
 preserveAspectRatio="xMidYMid meet">
<metadata>
Created by potrace 1.14, written by Peter Selinger 2001-2017
</metadata>
<g transform="translate(0.000000,1600.000000) scale(0.100000,-0.100000)"
fill="#000000" stroke="none">
<path d="M6865 15359 c-88 -12 -109 -16 -174 -38 -295 -101 -541 -351 -745
-759 -44 -88 -136 -296 -136 -307 0 -3 -9 -25 -19 -48 -45 -99 -180 -498 -276
-817 -31 -102 -60 -196 -64 -210 -5 -14 -26 -78 -47 -144 -21 -65 -43 -120
-49 -121 -5 -2 -95 -24 -200 -49 -384 -93 -636 -181 -920 -321 -374 -185 -590
-361 -656 -533 -29 -76 -29 -194 -1 -274 60 -170 220 -300 493 -402 90 -33
269 -88 349 -106 183 -42 469 -98 595 -115 76 -10 105 -16 105 -20 0 -9 91
-301 100 -320 5 -11 16 -45 26 -75 34 -111 167 -429 240 -574 41 -82 73 -151
71 -152 -2 -2 -705 -5 -1563 -7 -857 -1 -1570 -6 -1584 -9 -159 -45 -244 -91
-330 -178 -48 -49 -120 -159 -120 -184 0 -6 -4 -16 -8 -21 -12 -14 -32 -87
-40 -143 -3 -26 -6 -1507 -6 -3292 0 -3496 -3 -3283 51 -3415 69 -165 206
-288 393 -351 53 -18 136 -19 2048 -22 l1992 -2 -5 -63 c-2 -34 -7 -87 -10
-117 -3 -30 -7 -84 -10 -120 -16 -188 -19 -201 -68 -298 -58 -116 -190 -238
-318 -295 -113 -50 -174 -58 -428 -61 l-236 -3 -61 -31 c-93 -47 -154 -127
-172 -224 -26 -139 44 -277 175 -343 l58 -30 2620 0 2620 0 56 27 c119 59 183
159 183 288 1 62 -4 85 -27 131 -34 71 -86 122 -156 156 -55 26 -61 27 -266
29 -300 2 -348 10 -480 76 -130 65 -234 167 -298 295 -41 80 -47 113 -73 438
-3 44 -7 95 -9 112 l-3 33 1962 1 c1078 0 1975 3 1991 5 58 9 166 45 218 74
162 89 275 251 305 440 4 25 7 1512 7 3305 0 3081 -1 3264 -18 3325 -61 226
-214 381 -442 447 -56 17 -169 18 -1624 21 -861 1 -1566 4 -1568 5 -1 2 26 59
61 128 55 106 88 179 161 354 41 97 111 294 160 450 31 99 62 183 68 187 7 4
23 8 37 8 14 0 68 7 120 14 132 20 151 24 270 47 58 12 116 23 130 26 322 60
658 176 812 280 197 132 283 319 233 506 -36 135 -174 277 -427 435 -77 48
-418 214 -523 255 -210 81 -485 164 -744 223 -99 23 -125 32 -132 49 -5 11
-32 110 -60 220 -149 590 -284 991 -436 1305 -219 453 -456 714 -760 839 -40
16 -73 28 -73 26 0 -2 -18 2 -41 10 -91 33 -264 37 -387 10 -174 -38 -304
-119 -541 -334 -162 -147 -219 -181 -307 -182 -60 -1 -115 24 -189 85 -53 44
-56 46 -161 147 -139 133 -239 202 -367 253 -108 43 -241 60 -352 45z m156
-659 c48 -32 58 -40 180 -152 124 -114 137 -124 222 -185 165 -117 356 -176
547 -169 237 10 445 112 690 340 89 83 180 156 221 177 84 42 191 11 292 -84
222 -210 417 -630 616 -1327 62 -215 166 -610 177 -670 11 -62 62 -156 105
-195 47 -42 107 -72 165 -81 32 -5 147 -28 246 -49 285 -61 787 -249 982 -368
l59 -35 -69 -21 c-159 -46 -348 -91 -454 -107 -19 -3 -42 -7 -51 -10 -9 -2
-34 -7 -55 -9 -22 -3 -50 -7 -64 -10 -14 -3 -43 -7 -65 -10 -22 -3 -51 -8 -65
-10 -14 -3 -47 -7 -75 -11 -27 -3 -61 -7 -75 -9 -31 -5 -268 -34 -330 -40 -25
-2 -67 -7 -95 -10 -27 -3 -72 -7 -100 -9 -138 -12 -194 -17 -235 -21 -60 -5
-165 -13 -420 -29 -732 -47 -1840 -52 -2595 -11 -71 4 -159 8 -195 10 -61 3
-177 11 -300 21 -30 2 -95 7 -145 10 -49 3 -101 7 -115 9 -14 2 -61 7 -105 10
-44 3 -91 8 -105 10 -14 2 -54 7 -90 10 -36 4 -81 8 -100 11 -19 2 -60 6 -90
10 -30 3 -66 7 -80 9 -26 4 -70 10 -150 20 -25 3 -56 8 -70 10 -14 3 -41 7
-60 9 -69 9 -168 26 -300 52 -41 8 -86 17 -100 20 -52 10 -297 74 -334 87
l-39 13 79 47 c256 150 826 346 1139 391 74 11 100 18 146 42 55 27 114 84
138 133 18 34 98 275 156 466 15 50 63 203 107 340 43 138 80 257 83 265 12
45 131 376 144 405 6 11 24 56 42 100 47 115 140 293 201 382 84 125 148 191
222 228 67 34 112 32 167 -5z m-751 -3965 c191 -31 312 -56 487 -101 168 -42
267 -76 368 -124 135 -65 165 -108 128 -191 -53 -119 -245 -240 -443 -279
-185 -37 -281 -28 -396 36 -156 86 -282 322 -310 577 -3 29 -7 65 -9 80 -3 27
-2 28 38 23 23 -3 85 -12 137 -21z m3504 -22 c-7 -95 -27 -190 -58 -284 -89
-268 -257 -413 -476 -411 -209 2 -440 91 -558 215 -53 56 -71 89 -77 140 -15
119 399 266 1045 371 135 22 129 24 124 -31z m3536 -1382 l25 -1 -2 -3157 c0
-1737 -2 -3165 -2 -3173 -1 -14 -215 -15 -1950 -15 l-1950 0 -5 45 c-3 25 -8
72 -11 105 -11 136 -16 192 -20 230 -3 22 -7 70 -10 108 -3 37 -7 97 -10 135
-3 37 -8 85 -10 107 -2 22 -7 72 -10 110 -3 39 -8 88 -10 110 -2 22 -7 81 -10
130 -4 50 -8 101 -10 114 -3 14 -7 63 -10 110 -3 47 -8 102 -10 121 -2 19 -7
71 -10 115 -3 44 -8 96 -10 115 -2 19 -7 67 -10 105 -3 39 -8 90 -10 115 -2
25 -7 81 -10 125 -4 44 -8 96 -10 115 -3 19 -7 67 -10 105 -3 39 -8 90 -10
115 -3 25 -7 81 -10 125 -3 44 -8 97 -11 117 -3 21 -5 40 -5 43 1 3 -12 32
-28 64 -99 195 -348 235 -502 82 -94 -94 -109 -163 -85 -401 6 -56 10 -108 21
-235 3 -38 8 -88 10 -110 2 -22 7 -76 10 -120 4 -44 8 -96 10 -115 2 -19 6
-69 10 -110 3 -41 8 -93 10 -115 2 -22 7 -76 10 -120 4 -44 8 -96 10 -115 2
-19 6 -71 10 -115 3 -44 8 -100 10 -125 2 -25 7 -73 10 -107 3 -35 7 -89 10
-120 3 -32 7 -80 10 -108 2 -27 6 -77 9 -110 3 -33 8 -91 11 -130 3 -38 8 -90
10 -115 3 -25 7 -76 10 -115 3 -38 8 -88 10 -110 2 -22 7 -76 10 -120 4 -44 8
-96 10 -115 2 -19 6 -71 10 -115 3 -44 8 -98 10 -120 2 -22 7 -71 10 -110 6
-69 10 -123 20 -227 2 -29 7 -84 10 -123 3 -38 8 -88 10 -110 2 -22 7 -74 10
-115 3 -41 8 -102 11 -135 10 -120 69 -315 129 -423 13 -23 21 -42 17 -43 -45
-6 -2202 -2 -2202 4 0 4 14 33 30 63 43 75 87 189 105 270 16 68 19 89 30 219
3 39 8 93 10 120 3 28 7 75 10 105 2 30 6 84 9 120 4 36 8 90 11 120 2 30 6
78 9 105 3 28 8 84 11 125 9 115 15 181 20 230 3 25 7 79 10 120 3 41 8 95 10
120 2 25 7 74 10 110 3 36 7 85 10 110 2 25 7 83 11 130 4 47 8 99 9 115 2 17
6 73 10 125 4 52 9 102 10 110 1 8 6 53 10 100 4 47 8 101 10 120 2 19 6 73
10 120 4 47 8 101 10 120 2 19 6 69 10 110 3 41 8 93 10 115 2 22 7 76 10 120
4 44 8 96 10 115 2 19 7 76 10 125 4 50 8 100 10 113 2 12 7 64 10 115 4 50 8
103 11 117 9 59 19 212 19 305 0 87 -3 106 -25 149 -92 180 -306 235 -470 121
-78 -54 -122 -140 -134 -260 -7 -73 -20 -214 -31 -355 -3 -36 -8 -85 -10 -110
-2 -25 -6 -79 -10 -120 -3 -41 -8 -95 -11 -120 -2 -25 -6 -74 -9 -110 -3 -36
-7 -85 -10 -110 -4 -41 -8 -88 -20 -240 -3 -30 -7 -75 -10 -100 -2 -25 -7 -76
-10 -115 -8 -103 -15 -194 -21 -245 -2 -25 -6 -71 -9 -102 -3 -32 -7 -82 -10
-110 -2 -29 -7 -89 -10 -133 -3 -44 -8 -96 -10 -115 -3 -19 -7 -66 -10 -105
-3 -38 -8 -90 -10 -115 -2 -25 -7 -81 -10 -125 -3 -44 -8 -87 -10 -95 -4 -14
-221 -15 -1952 -15 l-1948 0 -3 3172 -2 3172 22 3 c19 2 10669 1 10748 -1z"/>
</g>
</svg>
